<?xml version="1.0" encoding="UTF-8" standalone="no"?><!-- Generator: Gravit.io --><svg xmlns="http://www.w3.org/2000/svg" xmlns:xlink="http://www.w3.org/1999/xlink" style="isolation:isolate" viewBox="0 0 205 474.06" width="205pt" height="474.06pt"><defs><clipPath id="_clipPath_2LgVJvT2asHMB0B8HP1KJGP8vBNkztON"><rect width="205" height="474.06"/></clipPath></defs><g clip-path="url(#_clipPath_2LgVJvT2asHMB0B8HP1KJGP8vBNkztON)"><path d=" M 78.533 92 L 69.308 108.488 L 59.208 113.544 L 65.358 118.38 L 67.083 134.946 L 71.726 149.186 L 73.802 165.605 L 92.809 190.003 L 100.769 184.003 L 100.724 137.003 L 84.638 95.003 L 78.533 92 Z  M 126.467 92 L 135.692 108.488 L 145.792 113.544 L 139.642 118.38 L 137.665 136.235 L 133.685 149.186 L 131.547 166.263 L 112.987 189.74 C 113.199 189.814 112.817 190.291 105.196 184.003 C 105.03 182.825 104.44 138.185 104.274 137.003 L 120.362 95.003 L 126.467 92 Z  M 88.683 95.003 L 95.197 113.544 L 102.422 130.003 L 110.599 113.544 L 116.196 96.003 L 115.376 92 L 104.196 97.357 L 91.6 91 M 71.315 179.003 L 73.802 169.529 L 90.332 191.003 L 78.198 188.74 L 73.802 190.003 L 71.726 190.003 M 135.769 177.74 L 133.282 168.266 L 116.752 189.74 L 128.605 188.74 L 133.282 189.74 L 135.358 188.74" fill-rule="evenodd" fill="rgb(0,0,0)"/><g style="isolation:isolate"/></g></svg>