<?xml version="1.0" encoding="UTF-8" standalone="no"?><!-- Generator: Gravit.io --><svg xmlns="http://www.w3.org/2000/svg" xmlns:xlink="http://www.w3.org/1999/xlink" style="isolation:isolate" viewBox="0 0 205 474.06" width="205pt" height="474.06pt"><defs><clipPath id="_clipPath_KlanoQxmajqEXO76tuWlAjF3Je8ExT2k"><rect width="205" height="474.06"/></clipPath></defs><g clip-path="url(#_clipPath_KlanoQxmajqEXO76tuWlAjF3Je8ExT2k)"><g style="isolation:isolate"/><path d=" M 104.975 225.491 M 62.114 203.821 L 70.181 192.071 L 78.779 191.003 L 89.045 192.071 L 97.182 197.412 L 101.304 207.026 L 102.562 216.713 L 102.562 225.491 L 100.915 232.31 L 92.973 237.814 L 82.016 241.484 L 72.388 241.484 L 63.855 235.979 L 60.325 230.475 L 59.208 223.407 L 60.325 210.291 M 102.457 225.491 M 145.317 203.821 L 137.25 192.071 L 128.653 191.003 L 118.386 192.071 L 110.249 197.412 L 106.127 207.026 L 104.869 216.713 L 104.869 225.491 L 106.516 232.31 L 114.458 237.814 L 125.415 241.484 L 135.043 241.484 L 143.577 235.979 L 147.106 230.475 L 148.223 223.407 L 147.106 210.291" fill-rule="evenodd" fill="rgb(0,0,0)"/></g></svg>