<?xml version="1.0" encoding="UTF-8" standalone="no"?><!-- Generator: Gravit.io --><svg xmlns="http://www.w3.org/2000/svg" xmlns:xlink="http://www.w3.org/1999/xlink" style="isolation:isolate" viewBox="0 0 205 474.06" width="205pt" height="474.06pt"><defs><clipPath id="_clipPath_Hx9RivZGNQdhrBf8jlSOJItZdgqbiGiV"><rect width="205" height="474.06"/></clipPath></defs><g clip-path="url(#_clipPath_Hx9RivZGNQdhrBf8jlSOJItZdgqbiGiV)"><path d=" M 86.143 454.414 L 89.228 453.967 L 92.476 453.496 L 92.67 442.487 L 93.738 413.129 L 88.962 414.046 L 81.385 409.459 L 77.855 409.459 L 75.208 409.459 L 86.143 454.414 Z  M 95.648 462.671 L 95.6 470.292 L 93.738 474.06 L 86.679 474.06 L 84.914 470.292 L 84.032 469.093 L 83.789 466.341 L 84.914 461.753 L 85.468 457.166 C 85.944 457.073 87.791 455.898 89.633 455.536 C 91.599 455.149 93.557 455.574 93.738 455.539 L 95.648 462.671 Z  M 81.385 340.651 L 77.855 350.743 L 84.914 356.247 L 87.4 350.71 L 81.385 340.651 Z  M 91.973 361.752 L 90.209 355.388 L 88.444 352.577 L 85.797 357.635 L 84.032 403.954 L 84.914 407.906 L 86.143 410.376 L 91.091 411.789 L 94.621 409.459 L 96.182 403.954 L 94.621 371.676 L 91.973 361.752 Z  M 83.789 357.165 L 81.918 405.789 L 78.198 407.906 L 73.998 406.707 L 72.326 402.119 L 71.873 396.615 C 74.171 379.217 74.539 367.846 76.442 355.04 C 76.576 354.144 76.712 353.244 76.854 352.341 L 83.789 357.165 Z  M 90.209 242.484 C 91.703 246.071 97.858 275.645 99.915 280.582 L 100.797 258.081 L 99.915 248.084 L 98.033 236.979 L 90.209 242.484 Z  M 88.962 262.668 L 89.228 253.493 L 90.209 249.824 L 99.332 283.769 L 99.032 295.696 L 96.182 306.705 L 83.149 325.972 L 86.262 312.315 L 87.4 293.974 L 88.962 262.668 Z  M 71.061 244.319 L 76.462 244.319 L 76.973 245.236 L 75.208 257.163 L 74.331 293.974 L 72.561 326.889 C 72.313 325.91 69.657 322.349 69.031 319.877 C 68.052 316.006 66.811 310.913 65.04 303.785 C 64.16 300.243 63.148 296.2 61.972 291.554 L 63.737 239.732 L 71.061 244.319 Z  M 83.149 243.401 L 88.962 241.567 L 88.045 248.443 L 84.914 308.54 L 84.032 314.962 L 78.738 338.908 L 77.855 346.236 L 76.149 350.712 L 75.208 347.99 L 72.561 332.394 L 73.998 327.375 L 76.854 298.448 L 78.198 254.411 L 79.62 247.071 L 83.149 243.401 Z  M 84.032 458.463 L 83.789 461.216 L 82.917 464.886 L 81.918 467.276 L 83.789 471.308 L 84.032 473.143 L 81.385 474.06 L 78.198 472.809 L 76.462 472.809 L 74.331 473.143 L 71.873 472.809 L 70.388 473.143 L 69.181 472.809 L 68.149 472.225 L 67.267 470.39 L 69.181 470.369 L 76.09 467.638 L 84.032 458.463 Z  M 96.385 310.375 L 92.476 315.88 L 82.267 329.961 L 81.918 337.898 L 89.228 350.743 L 94.621 364.504 L 95.503 351.66 L 94.621 335.146 M 119.289 454.414 L 116.203 453.967 L 112.955 453.496 L 112.761 442.487 L 111.693 413.129 L 116.47 414.046 L 124.047 409.459 L 127.576 409.459 L 130.223 409.459 L 119.289 454.414 Z  M 109.784 462.671 L 109.831 470.292 L 111.693 474.06 L 118.752 474.06 L 120.517 470.292 L 121.399 469.093 L 121.642 466.341 L 120.517 461.753 L 119.963 457.166 C 119.487 457.073 117.64 455.898 115.798 455.536 C 113.832 455.149 111.874 455.574 111.693 455.539 L 109.784 462.671 Z  M 124.047 340.651 L 127.576 350.743 L 120.517 356.247 L 118.031 350.71 L 124.047 340.651 Z  M 113.458 361.752 L 115.223 355.388 L 116.987 352.577 L 119.635 357.635 L 121.399 403.954 L 120.517 407.906 L 119.289 410.376 L 114.34 411.789 L 110.811 409.459 L 109.249 403.954 L 110.811 371.676 L 113.458 361.752 Z  M 121.642 357.165 L 123.514 405.789 L 127.234 407.906 L 131.433 406.707 L 133.105 402.119 L 133.559 396.615 C 131.26 379.217 130.892 367.846 128.989 355.04 C 128.856 354.144 128.719 353.244 128.578 352.341 L 121.642 357.165 Z  M 115.223 242.484 C 113.728 246.071 107.573 275.645 105.516 280.582 L 104.634 258.081 L 105.516 248.084 L 107.399 236.979 L 115.223 242.484 Z  M 116.47 262.668 L 116.203 253.493 L 115.223 249.824 L 106.1 283.769 L 106.399 295.696 L 109.249 306.705 L 122.282 325.972 L 119.17 312.315 L 118.031 293.974 L 116.47 262.668 Z  M 134.37 244.319 L 128.969 244.319 L 128.459 245.236 L 130.223 257.163 L 131.1 293.974 L 132.87 326.889 C 133.118 325.91 135.774 322.349 136.4 319.877 C 137.379 316.006 138.62 310.913 140.391 303.785 C 141.272 300.243 142.283 296.2 143.459 291.554 L 141.694 239.732 L 134.37 244.319 Z  M 122.282 243.401 L 116.47 241.567 L 117.386 248.443 L 120.517 308.54 L 121.399 314.962 L 126.694 338.908 L 127.576 346.236 L 129.283 350.712 L 130.223 347.99 L 132.87 332.394 L 131.433 327.375 L 128.578 298.448 L 127.234 254.411 L 125.811 247.071 L 122.282 243.401 Z  M 121.399 458.463 L 121.642 461.216 L 122.515 464.886 L 123.514 467.276 L 121.642 471.308 L 121.399 473.143 L 124.047 474.06 L 127.234 472.809 L 128.969 472.809 L 131.1 473.143 L 133.559 472.809 L 135.044 473.143 L 136.25 472.809 L 137.282 472.225 L 138.165 470.39 L 136.25 470.369 L 129.341 467.638 L 121.399 458.463 Z  M 109.046 310.375 L 112.955 315.88 L 123.164 329.961 L 123.514 337.898 L 116.203 350.743 L 110.811 364.504 L 109.928 351.66 L 110.811 335.146" fill-rule="evenodd" fill="rgb(0,0,0)"/><g style="isolation:isolate"/></g></svg>