<?xml version="1.0" encoding="UTF-8" standalone="no"?><!-- Generator: Gravit.io --><svg xmlns="http://www.w3.org/2000/svg" xmlns:xlink="http://www.w3.org/1999/xlink" style="isolation:isolate" viewBox="0 0 205 474.06" width="205pt" height="474.06pt"><defs><clipPath id="_clipPath_Z99jt3hrCi5EbUIpsmUCb8b1bSPz0DNN"><rect width="205" height="474.06"/></clipPath></defs><g clip-path="url(#_clipPath_Z99jt3hrCi5EbUIpsmUCb8b1bSPz0DNN)"><path d=" M 89.29 64.9 L 94.621 61.003 L 98.196 66 L 101.201 73 L 102.886 73 L 101.196 82 L 102.886 91 L 101.196 94 L 93.632 87.65 L 89.01 71.802 L 89.29 64.9 Z  M 116.987 64.9 L 112.617 61.003 L 108.949 66 L 106.232 73 L 104.196 73 L 106.196 82 L 104.946 91 L 106.196 94 L 113.694 87.654 L 118.316 71.806 L 116.987 64.9 Z  M 123.326 40.725 L 123.434 28.95 L 102.274 14.208 L 82.319 26.133 L 82.286 40.19 L 79.046 40.405 L 80.508 50.137 L 85.716 51.947 L 88.076 63.577 L 94.617 59.003 L 99.196 64.9 L 102.274 71.802 L 105.196 71.802 L 108.196 64.9 L 112.761 58.003 L 118.031 63.577 L 120.13 51.949 L 125.337 50.139 L 126.679 40.622 L 123.326 40.725 Z  M 82.286 43 L 84.999 27 L 102.422 16 L 121.196 31 C 120.351 37.791 121.361 41.801 124.196 43 L 130.8 20.94 L 116.752 2.376 L 99.686 0 L 84.999 3.673 L 74.198 24.415 L 82.286 43 Z " fill="rgb(0,0,0)"/><g style="isolation:isolate"/></g></svg>