<?xml version="1.0" encoding="UTF-8" standalone="no"?><!-- Generator: Gravit.io --><svg xmlns="http://www.w3.org/2000/svg" xmlns:xlink="http://www.w3.org/1999/xlink" style="isolation:isolate" viewBox="0 0 205 474.06" width="205pt" height="474.06pt"><defs><clipPath id="_clipPath_95cQw6HFIRk8N2R1UiECalLXkWWIgCR9"><rect width="205" height="474.06"/></clipPath></defs><g clip-path="url(#_clipPath_95cQw6HFIRk8N2R1UiECalLXkWWIgCR9)"><path d=" M 87.31 75.003 L 89.29 84.235 L 77.637 87.092 L 70.163 84.455 L 87.31 75.003 Z  M 120.342 75.003 L 118.362 84.235 L 130.015 87.092 L 137.489 84.455 L 120.342 75.003 Z  M 141.58 85.543 L 145.624 83.356 L 158.28 97.356 L 158.35 102.686 C 158.35 102.686 141.826 85.667 141.581 85.542 L 141.58 85.543 Z  M 140.295 86.123 C 140.287 86.403 158.057 105.045 158.057 105.045 L 158.594 121.602 L 152.437 111.052 L 140.566 105.995 L 132.214 90.607 L 140.295 86.123 Z  M 66.071 85.543 L 62.028 83.357 L 49.372 97.357 L 49.31 102.682 C 49.31 102.682 65.83 85.667 66.074 85.542 L 66.071 85.543 Z  M 67.356 86.123 C 67.366 86.403 49.594 105.045 49.594 105.045 L 49.056 121.602 L 55.213 111.052 L 67.083 105.996 L 75.44 90.607 L 67.356 86.123 Z  M 21.255 232.686 L 24.135 239.586 L 32.547 240.921 L 33.211 253.379 L 28.784 271.179 L 25.906 270.959 L 28.706 259.112 L 25.716 259.028 L 21.04 271.628 L 17.496 271.182 L 21.896 258.446 L 18.824 257.862 L 12.846 271.405 L 8.418 270.96 L 14.506 256.86 L 12.406 255.61 L 4.878 267.622 L 1.114 267.177 L 12.4 245.588 L 11.293 243.808 L 0.665 248.258 L 0 245.812 L 8.635 238.026 L 21.255 232.686 Z  M 183.745 232.686 L 180.865 239.586 L 172.453 240.921 L 171.789 253.379 L 176.216 271.179 L 179.094 270.959 L 176.294 259.112 L 179.284 259.028 L 183.96 271.628 L 187.504 271.182 L 183.104 258.446 L 186.176 257.862 L 192.154 271.405 L 196.582 270.96 L 190.494 256.86 L 192.594 255.61 L 200.122 267.622 L 203.886 267.177 L 192.6 245.588 L 193.707 243.808 L 204.335 248.258 L 205 245.811 L 196.365 238.025 L 183.745 232.686 Z  M 45.439 174.865 C 45.315 174.997 45.171 175.109 45.012 175.195 L 45.947 183.419 L 58.924 169.529 L 60.124 160.571 C 54.943 165.033 50.039 169.806 45.439 174.865 L 45.439 174.865 Z  M 46.826 187.387 L 28.756 236.297 L 34.513 237.63 L 53.638 198.19 L 57.156 176.143 L 46.826 187.387 Z  M 41.548 168.427 L 44.186 187.167 L 26.986 233.19 L 24.329 231.415 L 30.973 195.897 L 41.548 168.427 Z  M 159.563 174.867 C 159.686 174.999 159.83 175.111 159.989 175.197 L 159.055 183.419 L 146.078 169.529 L 144.878 160.571 C 150.058 165.033 154.96 169.806 159.559 174.865 L 159.563 174.867 Z  M 158.173 187.387 L 176.246 236.297 L 170.488 237.63 L 151.356 198.19 L 147.836 176.14 L 158.173 187.387 Z  M 163.453 168.427 L 160.813 187.167 L 178.013 233.19 L 180.671 231.415 L 174.028 195.897 L 163.453 168.427 Z  M 60.353 156.104 C 60.477 156.006 60.614 155.926 60.76 155.864 L 64.426 128.519 L 57.389 118.38 L 50.131 128.96 L 43.971 166 L 44.537 170.973 C 49.444 165.645 54.727 160.675 60.345 156.103 L 60.353 156.104 Z  M 144.653 156.104 C 144.528 156.007 144.392 155.926 144.246 155.864 L 140.58 128.519 L 147.619 118.38 L 154.877 128.96 L 161.037 166 L 160.471 170.973 C 155.56 165.644 150.272 160.675 144.649 156.103 L 144.653 156.104 Z  M 46.607 127.197 L 43.307 162.473 L 41.107 136.235 L 46.607 127.197 Z  M 158.397 127.197 L 161.697 162.473 L 163.897 136.235 L 158.397 127.197 Z " fill-rule="evenodd" fill="rgb(0,0,0)"/><g style="isolation:isolate"/></g></svg>